<svg width="287" height="245" viewBox="0 0 287 245" fill="none" xmlns="http://www.w3.org/2000/svg">
<path d="M143.1 244.5L0 70.1L61.1 0.5H225.1L286.2 70.1L143.1 244.5Z" fill="white"/>
<path d="M84.4 59.8C84.8 58.3 86 55.4 86.6 53.8C83.1 37.2 74.5 22 61.6 10.4L12 66.8H80.9C82.3 64 83.5 61.5 84.4 59.8Z" fill="#1D428A"/>
<path d="M91.4 44.8C96.3 37.3 99.7 37.8 107 37.1L107.5 36.4C116.8 36 115.3 35.3 116.6 26.3C115.2 26.9 114.8 23.5 114.8 23.5C114.1 18.4 116.2 19.4 117.2 19.3C117.4 12.5 118 9.49999 121.5 7.29999H68.4C79.2 17.8 87.1 30.7 91.4 44.8Z" fill="#1D428A"/>
<path d="M147.2 228.7C141.9 225.2 145.3 218.8 145.6 207C142.6 204.3 144.6 203.2 144.5 202.2C142.5 194.1 136.1 189.2 139.4 186.5C138.6 183.8 136.9 180.4 137 180.5C126.9 174.7 118.4 165.3 116.9 164C115.1 162.1 112.1 160.2 111.6 158.6C109.2 156.4 97.3 139.6 94.6 133.4L89.8 132.7C88.4 126.8 84.7 121.6 82.4 116.2C77.5 124.1 71.4 131.2 64.1 137.3L143.3 233.8L147.2 228.7Z" fill="#1D428A"/>
<path d="M80 105.8C80.3 102.1 81.6 96.4 82.1 95.1C82.7 93.6 85.5 91.2 85.5 91.2V88.8C75 89.1 78 88 76.2 84C74.9 81.2 75.8 80.6 76.3 78.6C76.7 77.1 77.2 75.5 77.9 73.8H11.8L59.5 131.9C68.3 124.6 75.2 115.7 80 105.8Z" fill="#1D428A"/>
<path d="M226.3 132.3L274.4 73.7H224.1V73.6C224.1 71 223.9 68.8 223.5 66.8H274.2L224.3 10C217.3 16.2 211.6 23.4 207.2 31.3H199.4C203.8 22.5 209.7 14.4 217 7.40002H133.1C134.2 8.10002 135 9.00003 135.6 10.1C137.9 10.3 140.6 15.4 136.4 23C138.3 24.3 136.8 26.1 135.5 28.3C135.1 29 134.7 30.2 133.4 30.2C131.8 33.6 129.8 36.9 128.4 37.1C128 37.6 127.6 39.1 128.3 39.8C130.5 40.8 133.1 42.1 134.4 43.3L134.5 44.1C136.2 45.1 137 45.9 138.7 47C142.7 49.5 147.5 53.8 148 66.9H170.7C170.3 69 170 71.3 169.8 73.8H148.5C149.5 77.8 150 83.6 151 85.7C153.3 90.3 154.9 93.3 155.6 97.7C155.6 97.7 156.3 104.5 157.1 105C161.7 106 160.4 106.5 161.1 107.3C161.8 108.2 164.5 108.2 164.5 110.7C165.4 111.9 166.1 113.2 166.6 114.6C166.6 114.6 167.8 117 167.8 120.8C167.8 122.5 167.5 124.7 166.6 126.8C164.2 132.9 158.2 137.2 151.2 137.2C142 137.2 134.7 129.8 134.7 120.7C134.7 112.9 140.1 106.4 147.3 104.6C145.4 99.8 141.4 92.1 140.2 89.6C139.1 87.1 136.3 71.3 135.8 68.2C135.7 67.5 128.7 72.3 128.6 72.6C128.2 73 123.3 85.7 123.1 86.3C123 86.7 123 88.4 123 88.4C123 88.4 125.4 88.7 126.8 92.9C128.2 97.1 132.3 112.2 132.3 112.2C132.3 112.2 131.2 113.4 131.1 113.3C136.3 130.8 134.5 138.3 136.8 143.5C139.7 150.7 140.5 149.8 143.1 155.9C144.9 160.3 146.9 177.7 147.6 178.5C150.4 182.1 151.9 184.9 151.9 186.9C151.9 188.9 149.5 194.9 150.4 198.4C150.9 200.5 151.2 205.1 152.2 205.9C152.2 205.9 153.1 207.6 152.6 208.4C152.5 208.7 152.2 209.1 152.3 209.4C153.1 212.1 154.7 215.8 155.1 219.4L222 137.9C212.4 130 204.8 120.3 199.4 109.5H207.2C211.9 117.9 218.4 125.7 226.3 132.3ZM191.5 44.9L187.9 54.6C184.1 64.7 184.3 75.3 184.3 96.9V102.8H175.3V98.7C175.3 73.4 176.5 64.5 181.4 52.9L184.4 45.9H169.7V37.7H191.6V44.9H191.5ZM195.2 90.2V76.7H204V91C204 94.3 204.8 95.2 206.6 95.2C208.2 95.2 209.1 94.3 209.1 91V73.7C209.1 70.6 208.8 68.2 205.6 68.2C203.6 68.2 202.3 69.6 201.3 71.3L195.3 68.3V37.7H217.5V45.9H203.3V61.8C204.9 61.2 206.9 60.7 209 60.7C216.4 60.7 217.8 66.9 217.8 73.6V90.1C217.8 100 214.2 103.3 206.6 103.3C198.8 103.4 195.2 100.1 195.2 90.2Z" fill="#C8102E"/>
</svg>
